<svg xmlns="http://www.w3.org/2000/svg" viewBox="0 0 512 512" fill="hsla(0, 0%, 100%, .5)"><style>.st0{fill-rule:evenodd;clip-rule:evenodd;fill:none;}</style><path d="M256 56c110.5 0 200 89.5 200 200s-89.5 200-200 200S56 366.5 56 256 145.5 56 256 56zm0-48C119 8 8 119 8 256s111 248 248 248 248-111 248-248S393 8 256 8z"/><path d="M289.9 256l67.9-67.9c3.1-3.1 3.1-8.2 0-11.3l-22.6-22.6c-3.1-3.1-8.2-3.1-11.3 0L256 222.1l-67.9-67.9c-3.1-3.1-8.2-3.1-11.3 0l-22.6 22.6c-3.1 3.1-3.1 8.2 0 11.3l67.9 67.9-67.9 67.9c-3.1 3.1-3.1 8.2 0 11.3l22.6 22.6c3.1 3.1 8.2 3.1 11.3 0l67.9-67.9 67.9 67.9c3.1 3.1 8.2 3.1 11.3 0l22.6-22.6c3.1-3.1 3.1-8.2 0-11.3L289.9 256z"/></svg>
